{
	"accessors" : 
	[
		{
			"bufferView" : 2,
			"byteOffset" : 0,
			"componentType" : 5126,
			"count" : 9888,
			"max" : 
			[
				1,
				1,
				1,
				1
			],
			"min" : 
			[
				5.692175545846112e-05,
				0.006584956776350737,
				0.006584956776350737,
				1
			],
			"name" : "accessor_color_m0-PolyPaper21_-173818",
			"type" : "VEC4"
		},
		{
			"bufferView" : 2,
			"byteOffset" : 158208,
			"componentType" : 5126,
			"count" : 1332,
			"max" : 
			[
				1,
				1,
				1,
				1
			],
			"min" : 
			[
				0.006584956776350737,
				0.006584956776350737,
				0.006584956776350737,
				1
			],
			"name" : "accessor_color_m1-PolyPaper23_-173820",
			"type" : "VEC4"
		},
		{
			"bufferView" : 2,
			"byteOffset" : 179520,
			"componentType" : 5126,
			"count" : 9704,
			"max" : 
			[
				1,
				1,
				1,
				1
			],
			"min" : 
			[
				0.006584956776350737,
				0.006584956776350737,
				0.006584956776350737,
				1
			],
			"name" : "accessor_color_m2-PolyPaper21_-172966",
			"type" : "VEC4"
		},
		{
			"bufferView" : 2,
			"byteOffset" : 334784,
			"componentType" : 5126,
			"count" : 9874,
			"max" : 
			[
				1,
				1,
				1,
				1
			],
			"min" : 
			[
				0.006584956776350737,
				0.006584956776350737,
				0.006584956776350737,
				1
			],
			"name" : "accessor_color_m3-PolyPaper7_-170484",
			"type" : "VEC4"
		},
		{
			"bufferView" : 0,
			"byteOffset" : 0,
			"componentType" : 5123,
			"count" : 14982,
			"max" : 
			[
				9887
			],
			"min" : 
			[
				0
			],
			"name" : "accessor_indices_0_m0-PolyPaper21_-173818",
			"type" : "SCALAR"
		},
		{
			"bufferView" : 0,
			"byteOffset" : 29964,
			"componentType" : 5123,
			"count" : 2022,
			"max" : 
			[
				1331
			],
			"min" : 
			[
				0
			],
			"name" : "accessor_indices_0_m1-PolyPaper23_-173820",
			"type" : "SCALAR"
		},
		{
			"bufferView" : 0,
			"byteOffset" : 34008,
			"componentType" : 5123,
			"count" : 14214,
			"max" : 
			[
				9703
			],
			"min" : 
			[
				0
			],
			"name" : "accessor_indices_0_m2-PolyPaper21_-172966",
			"type" : "SCALAR"
		},
		{
			"bufferView" : 0,
			"byteOffset" : 62436,
			"componentType" : 5123,
			"count" : 14784,
			"max" : 
			[
				9873
			],
			"min" : 
			[
				0
			],
			"name" : "accessor_indices_0_m3-PolyPaper7_-170484",
			"type" : "SCALAR"
		},
		{
			"bufferView" : 1,
			"byteOffset" : 118656,
			"componentType" : 5126,
			"count" : 9888,
			"max" : 
			[
				0.999654,
				0.9998826,
				0.9999337
			],
			"min" : 
			[
				-0.9999371,
				-0.9998826,
				-0.9999865999999999
			],
			"name" : "accessor_normal_m0-PolyPaper21_-173818",
			"type" : "VEC3"
		},
		{
			"bufferView" : 1,
			"byteOffset" : 253296,
			"componentType" : 5126,
			"count" : 1332,
			"max" : 
			[
				0.9983619,
				0.9967651,
				0.9910748
			],
			"min" : 
			[
				-0.9903057,
				-0.9967652,
				-0.9910749
			],
			"name" : "accessor_normal_m1-PolyPaper23_-173820",
			"type" : "VEC3"
		},
		{
			"bufferView" : 1,
			"byteOffset" : 385728,
			"componentType" : 5126,
			"count" : 9704,
			"max" : 
			[
				0.999387,
				0.9996784,
				0.9999919
			],
			"min" : 
			[
				-0.999387,
				-0.9996788,
				-0.9975464000000001
			],
			"name" : "accessor_normal_m2-PolyPaper21_-172966",
			"type" : "VEC3"
		},
		{
			"bufferView" : 1,
			"byteOffset" : 620664,
			"componentType" : 5126,
			"count" : 9874,
			"max" : 
			[
				0.9995525,
				0.9996484,
				0.9990748
			],
			"min" : 
			[
				-0.9985731,
				-0.9996483,
				-0.9997407
			],
			"name" : "accessor_normal_m3-PolyPaper7_-170484",
			"type" : "VEC3"
		},
		{
			"bufferView" : 1,
			"byteOffset" : 0,
			"componentType" : 5126,
			"count" : 9888,
			"max" : 
			[
				1.373912,
				2.64134,
				0.04309624
			],
			"min" : 
			[
				-0.3873943,
				1.318041,
				-0.9470854
			],
			"name" : "accessor_position_m0-PolyPaper21_-173818",
			"type" : "VEC3"
		},
		{
			"bufferView" : 1,
			"byteOffset" : 237312,
			"componentType" : 5126,
			"count" : 1332,
			"max" : 
			[
				-0.03056165,
				1.50756,
				-0.4011853
			],
			"min" : 
			[
				-0.1955631,
				1.369874,
				-0.6283805
			],
			"name" : "accessor_position_m1-PolyPaper23_-173820",
			"type" : "VEC3"
		},
		{
			"bufferView" : 1,
			"byteOffset" : 269280,
			"componentType" : 5126,
			"count" : 9704,
			"max" : 
			[
				1.490966,
				2.644636,
				0.3663392
			],
			"min" : 
			[
				-0.327972,
				1.436961,
				-0.8710654
			],
			"name" : "accessor_position_m2-PolyPaper21_-172966",
			"type" : "VEC3"
		},
		{
			"bufferView" : 1,
			"byteOffset" : 502176,
			"componentType" : 5126,
			"count" : 9874,
			"max" : 
			[
				1.685368,
				2.366055,
				0.5965334
			],
			"min" : 
			[
				-0.1658387,
				1.315536,
				-0.4529394
			],
			"name" : "accessor_position_m3-PolyPaper7_-170484",
			"type" : "VEC3"
		}
	],
	"asset" : 
	{
		"copyright" : "Unknown",
		"generator" : "glTF 1-to-2 Upgrader for Google Blocks",
		"version" : "2.0"
	},
	"bufferViews" : 
	[
		{
			"buffer" : 0,
			"byteLength" : 92004,
			"byteOffset" : 0,
			"name" : "ushortBufferView",
			"target" : 34963
		},
		{
			"buffer" : 0,
			"byteLength" : 739152,
			"byteOffset" : 92004,
			"byteStride" : 12,
			"name" : "vec3BufferView",
			"target" : 34962
		},
		{
			"buffer" : 0,
			"byteLength" : 492768,
			"byteOffset" : 831156,
			"byteStride" : 16,
			"name" : "vec4BufferView",
			"target" : 34962
		}
	],
	"buffers" : 
	[
		{
			"byteLength" : 1323924,
			"name" : "model",
			"uri" : "model.bin"
		}
	],
	"materials" : 
	[
		{
			"alphaMode" : "OPAQUE",
			"doubleSided" : false,
			"name" : "BlocksPaper",
			"pbrMetallicRoughness" : 
			{
				"baseColorFactor" : 
				[
					1,
					1,
					1,
					1
				],
				"metallicFactor" : 0,
				"roughnessFactor" : 0.6
			}
		},
		{
			"alphaMode" : "BLEND",
			"doubleSided" : false,
			"name" : "BlocksGlass",
			"pbrMetallicRoughness" : 
			{
				"baseColorFactor" : 
				[
					0.2,
					0.2,
					1,
					0.3
				],
				"metallicFactor" : 1,
				"roughnessFactor" : 0.4
			}
		},
		{
			"alphaMode" : "OPAQUE",
			"doubleSided" : true,
			"name" : "BlocksGem",
			"pbrMetallicRoughness" : 
			{
				"baseColorFactor" : 
				[
					1,
					0.4,
					1,
					1
				],
				"metallicFactor" : 0,
				"roughnessFactor" : 0.1
			}
		}
	],
	"meshes" : 
	[
		{
			"name" : "mesh_m0-PolyPaper21_-173818",
			"primitives" : 
			[
				{
					"attributes" : 
					{
						"COLOR_0" : 0,
						"NORMAL" : 8,
						"POSITION" : 12
					},
					"indices" : 4,
					"material" : 0,
					"mode" : 4
				}
			]
		},
		{
			"name" : "mesh_m1-PolyPaper23_-173820",
			"primitives" : 
			[
				{
					"attributes" : 
					{
						"COLOR_0" : 1,
						"NORMAL" : 9,
						"POSITION" : 13
					},
					"indices" : 5,
					"material" : 0,
					"mode" : 4
				}
			]
		},
		{
			"name" : "mesh_m2-PolyPaper21_-172966",
			"primitives" : 
			[
				{
					"attributes" : 
					{
						"COLOR_0" : 2,
						"NORMAL" : 10,
						"POSITION" : 14
					},
					"indices" : 6,
					"material" : 0,
					"mode" : 4
				}
			]
		},
		{
			"name" : "mesh_m3-PolyPaper7_-170484",
			"primitives" : 
			[
				{
					"attributes" : 
					{
						"COLOR_0" : 3,
						"NORMAL" : 11,
						"POSITION" : 15
					},
					"indices" : 7,
					"material" : 0,
					"mode" : 4
				}
			]
		}
	],
	"nodes" : 
	[
		{
			"matrix" : 
			[
				1,
				0,
				0,
				0,
				0,
				1,
				0,
				0,
				0,
				0,
				1,
				0,
				0,
				0,
				0,
				1
			],
			"mesh" : 2,
			"name" : "node_MeshObject-1329649536-PolyPaper21"
		},
		{
			"matrix" : 
			[
				1,
				0,
				0,
				0,
				0,
				1,
				0,
				0,
				0,
				0,
				1,
				0,
				0,
				0,
				0,
				1
			],
			"mesh" : 3,
			"name" : "node_MeshObject-433945344-PolyPaper7"
		},
		{
			"matrix" : 
			[
				1,
				0,
				0,
				0,
				0,
				1,
				0,
				0,
				0,
				0,
				1,
				0,
				0,
				0,
				0,
				1
			],
			"mesh" : 1,
			"name" : "node_MeshObject1153601344-PolyPaper23"
		},
		{
			"matrix" : 
			[
				1,
				0,
				0,
				0,
				0,
				1,
				0,
				0,
				0,
				0,
				1,
				0,
				0,
				0,
				0,
				1
			],
			"mesh" : 0,
			"name" : "node_MeshObject634881280-PolyPaper21"
		}
	],
	"scene" : 0,
	"scenes" : 
	[
		{
			"extras" : {},
			"name" : "defaultScene",
			"nodes" : 
			[
				3,
				2,
				0,
				1
			]
		}
	]
}