<?xml version="1.0" standalone="no"?>
<!DOCTYPE svg PUBLIC "-//W3C//DTD SVG 20010904//EN"
 "http://www.w3.org/TR/2001/REC-SVG-20010904/DTD/svg10.dtd">
<svg version="1.0" xmlns="http://www.w3.org/2000/svg"
 width="89.000000pt" height="89.000000pt" viewBox="0 0 89.000000 89.000000"
 preserveAspectRatio="xMidYMid meet">
<metadata>
Created by potrace 1.11, written by Peter Selinger 2001-2013
</metadata>
<g transform="translate(0.000000,89.000000) scale(0.100000,-0.100000)"
fill="#000000" stroke="none">
<path d="M43 818 c-12 -6 -26 -22 -31 -37 -5 -14 -8 -139 -8 -277 1 -196 4
-255 15 -267 16 -20 72 -37 120 -37 19 0 39 -6 45 -13 6 -8 29 -24 51 -36 33
-19 36 -19 16 -3 -16 13 -20 21 -12 26 6 4 11 2 11 -4 0 -6 4 -9 9 -6 5 4 12
0 14 -6 4 -10 6 -10 6 0 1 7 -5 15 -13 18 -8 3 -12 12 -9 20 4 10 9 9 23 -9
14 -17 16 -27 8 -42 -10 -19 -9 -19 8 -3 17 17 17 18 -1 38 -18 20 -18 20 31
21 66 2 88 -1 92 -12 5 -13 63 -42 70 -35 3 3 0 6 -7 6 -7 0 -9 5 -5 11 8 13
43 -27 44 -50 0 -8 3 -12 6 -8 7 7 -18 67 -28 67 -4 0 -5 7 -2 15 6 14 8 13
19 -2 7 -10 11 -21 9 -24 -2 -4 3 -12 11 -19 10 -9 15 -9 15 -1 0 6 -5 11 -12
11 -6 0 -8 3 -5 7 4 3 2 12 -4 20 -9 10 -3 13 32 14 24 1 55 2 69 3 31 1 40
-32 14 -52 -18 -14 -18 -14 1 -8 17 5 20 1 22 -31 3 -53 16 -59 47 -23 14 17
26 28 26 23 0 -4 6 1 12 11 10 18 11 18 25 -5 13 -22 13 -22 8 -2 -4 16 -2 21
10 19 9 -1 21 -9 26 -17 7 -11 9 -10 9 5 0 16 2 17 17 5 11 -10 14 -10 9 -1
-4 6 -3 12 2 12 5 0 14 12 21 27 10 26 10 27 -4 9 -8 -11 -18 -17 -22 -13 -3
4 2 16 12 27 22 24 13 27 -10 4 -20 -21 -32 -10 -14 13 9 11 10 14 2 9 -7 -4
-13 -3 -13 2 0 16 13 22 27 11 7 -6 13 -8 13 -3 0 5 -13 18 -28 29 -19 13 -23
14 -14 3 9 -12 10 -18 2 -23 -6 -4 -9 -13 -6 -21 7 -18 -8 -18 -24 1 -10 12
-9 16 2 20 9 4 13 20 13 48 -1 54 12 85 50 120 l30 28 -37 -26 c-20 -15 -39
-32 -41 -38 -2 -7 -3 11 -2 38 2 28 6 59 11 69 5 14 4 17 -4 12 -7 -4 -12 -3
-12 2 0 5 10 14 23 21 20 10 20 11 2 8 -26 -5 -29 32 -6 50 9 6 13 15 8 19 -4
4 -7 2 -7 -5 0 -7 -4 -10 -8 -7 -9 5 -7 66 3 106 5 19 4 22 -4 10 -6 -8 -11
-10 -11 -5 0 6 5 16 12 23 9 9 9 12 0 12 -7 0 -12 14 -12 34 0 25 -7 40 -26
55 -26 20 -37 21 -373 20 -222 0 -354 -4 -368 -11z m171 -624 c15 -14 16 -14
16 0 0 9 5 16 10 16 14 0 12 -16 -4 -29 -16 -14 -46 -4 -46 15 0 18 5 18 24
-2z m240 0 c15 -14 16 -14 16 0 0 9 5 16 10 16 14 0 12 -16 -4 -29 -16 -14
-46 -4 -46 15 0 18 5 18 24 -2z"/>
<path d="M846 692 c-3 -5 1 -9 9 -9 8 0 15 4 15 9 0 4 -4 8 -9 8 -6 0 -12 -4
-15 -8z"/>
<path d="M853 660 c6 -21 -12 -52 -25 -44 -7 5 -8 2 -3 -5 6 -10 12 -8 27 7
17 16 18 23 9 38 -7 11 -10 13 -8 4z"/>
<path d="M831 644 c0 -11 3 -14 6 -6 3 7 2 16 -1 19 -3 4 -6 -2 -5 -13z"/>
<path d="M850 592 c0 -15 28 -23 36 -9 4 7 4 9 -1 5 -4 -4 -14 -3 -22 3 -8 7
-13 8 -13 1z"/>
<path d="M836 555 c-16 -12 -17 -15 -4 -15 8 0 23 -10 33 -22 16 -22 16 -22 0
5 -9 15 -13 32 -10 37 8 13 4 12 -19 -5z"/>
<path d="M840 489 c0 -5 5 -7 10 -4 6 3 10 8 10 11 0 2 -4 4 -10 4 -5 0 -10
-5 -10 -11z"/>
<path d="M846 465 c-11 -8 -16 -21 -13 -30 8 -20 21 -19 38 2 13 15 12 15 -8
4 -27 -14 -32 3 -6 18 10 5 16 12 13 14 -3 3 -13 -1 -24 -8z"/>
<path d="M870 380 c0 -5 5 -10 11 -10 5 0 7 5 4 10 -3 6 -8 10 -11 10 -2 0 -4
-4 -4 -10z"/>
<path d="M850 368 c0 -9 5 -20 10 -23 8 -5 7 -11 -1 -21 -7 -8 -7 -14 -1 -14
17 0 20 25 6 51 -10 17 -13 19 -14 7z"/>
<path d="M830 325 c0 -8 2 -15 4 -15 2 0 6 7 10 15 3 8 1 15 -4 15 -6 0 -10
-7 -10 -15z"/>
<path d="M826 288 c3 -4 11 -5 19 -1 21 7 19 12 -4 10 -11 0 -18 -5 -15 -9z"/>
<path d="M861 283 c-7 -8 -11 -16 -8 -19 2 -2 10 2 17 11 17 20 9 27 -9 8z"/>
<path d="M358 181 c-16 -18 -15 -20 2 -18 11 1 16 6 12 16 -4 10 -1 12 8 6 9
-5 11 -4 6 3 -9 15 -9 15 -28 -7z"/>
<path d="M601 181 c-6 -11 -4 -23 5 -35 7 -10 12 -22 9 -25 -2 -4 5 -7 15 -8
11 -1 22 2 25 8 3 5 0 6 -8 3 -8 -3 -21 5 -30 19 -16 24 -12 40 11 45 14 2 16
-14 2 -21 -6 -3 -5 -4 2 -3 19 4 16 29 -5 32 -9 1 -21 -5 -26 -15z"/>
<path d="M103 184 c3 -4 1 -16 -5 -28 -6 -11 -7 -18 -3 -13 5 4 17 -1 28 -10
11 -10 17 -12 13 -5 -4 6 -2 12 3 12 6 0 11 5 11 11 0 8 -4 9 -13 0 -14 -11
-27 -5 -27 11 0 5 6 6 13 2 8 -5 8 -2 -2 9 -7 9 -16 17 -19 17 -3 0 -2 -3 1
-6z"/>
<path d="M146 176 c10 -8 21 -12 24 -10 5 6 -21 24 -34 24 -6 0 -1 -6 10 -14z"/>
<path d="M316 178 c3 -4 11 -5 19 -1 21 7 19 12 -4 10 -11 0 -18 -5 -15 -9z"/>
<path d="M566 175 c-3 -8 -1 -15 3 -15 5 0 11 7 15 15 3 8 1 15 -3 15 -5 0
-11 -7 -15 -15z"/>
<path d="M399 178 c-6 -11 -5 -48 1 -48 4 0 8 11 8 25 0 21 -5 32 -9 23z"/>
<path d="M188 153 c6 -2 12 -9 12 -14 0 -6 -5 -7 -12 -3 -6 4 -8 3 -4 -4 3 -5
0 -13 -6 -16 -7 -2 -3 -4 10 -2 12 1 28 8 35 16 7 8 8 11 1 7 -7 -4 -14 0 -18
8 -3 8 -11 15 -18 14 -10 0 -10 -2 0 -6z"/>
<path d="M320 153 c0 -6 -7 -19 -16 -27 -14 -15 -14 -16 5 -13 29 4 34 13 22
34 -6 10 -11 13 -11 6z"/>
<path d="M428 153 c6 -2 12 -9 12 -14 0 -6 -5 -7 -12 -3 -6 4 -8 3 -4 -4 3 -5
0 -13 -6 -16 -7 -2 -3 -4 10 -2 12 1 28 8 35 16 7 8 8 11 1 7 -7 -4 -14 0 -18
8 -3 8 -11 15 -18 14 -10 0 -10 -2 0 -6z"/>
<path d="M156 135 c-9 -26 -7 -32 5 -12 6 10 9 21 6 23 -2 3 -7 -2 -11 -11z"/>
<path d="M358 143 c7 -3 16 -2 19 1 4 3 -2 6 -13 5 -11 0 -14 -3 -6 -6z"/>
<path d="M583 131 c0 -11 5 -18 9 -15 4 3 5 11 1 19 -7 21 -12 19 -10 -4z"/>
<path d="M546 122 c-3 -5 1 -9 9 -9 8 0 15 4 15 9 0 4 -4 8 -9 8 -6 0 -12 -4
-15 -8z"/>
<path d="M255 110 c-3 -6 1 -7 9 -4 18 7 21 14 7 14 -6 0 -13 -4 -16 -10z"/>
<path d="M375 110 c-3 -6 1 -7 9 -4 18 7 21 14 7 14 -6 0 -13 -4 -16 -10z"/>
<path d="M495 110 c3 -5 8 -10 11 -10 2 0 4 5 4 10 0 6 -5 10 -11 10 -5 0 -7
-4 -4 -10z"/>
</g>
</svg>
